<?xml version="1.0" standalone="no"?>
<!DOCTYPE svg PUBLIC "-//W3C//DTD SVG 20010904//EN"
 "http://www.w3.org/TR/2001/REC-SVG-20010904/DTD/svg10.dtd">
<svg version="1.0" xmlns="http://www.w3.org/2000/svg"
 width="64.000000pt" height="64.000000pt" viewBox="0 0 64.000000 64.000000"
 preserveAspectRatio="xMidYMid meet">

<g transform="translate(0.000000,64.000000) scale(0.100000,-0.100000)"
fill="#000000" stroke="none">
<path d="M170 555 c0 -19 5 -35 10 -35 6 0 10 -9 10 -20 0 -11 5 -20 10 -20 6
0 10 -7 10 -15 0 -9 25 -40 55 -70 30 -31 55 -60 55 -65 0 -5 -25 -34 -55 -65
-30 -30 -55 -61 -55 -70 0 -8 -4 -15 -10 -15 -5 0 -10 -9 -10 -20 0 -11 -4
-20 -10 -20 -5 0 -10 -18 -10 -40 l0 -40 165 0 165 0 0 40 c0 22 -4 40 -10 40
-5 0 -10 9 -10 20 0 11 -4 20 -10 20 -5 0 -10 7 -10 15 0 9 -25 40 -55 70 -30
31 -55 60 -55 65 0 5 25 34 55 65 30 30 55 61 55 70 0 8 5 15 10 15 6 0 10 9
10 20 0 11 5 20 10 20 6 0 10 16 10 35 l0 35 -165 0 -165 0 0 -35z m310 -10
c0 -14 -4 -25 -10 -25 -5 0 -10 -9 -10 -20 0 -11 -4 -20 -10 -20 -5 0 -10 -7
-10 -15 0 -9 -24 -39 -52 -68 l-53 -52 -52 52 c-29 29 -53 59 -53 68 0 8 -4
15 -10 15 -5 0 -10 9 -10 20 0 11 -4 20 -10 20 -5 0 -10 11 -10 25 l0 25 145
0 145 0 0 -25z m-40 -350 c0 -8 5 -15 10 -15 6 0 10 -9 10 -20 0 -11 5 -20 10
-20 6 0 10 -13 10 -30 l0 -30 -145 0 -145 0 0 30 c0 17 5 30 10 30 6 0 10 9
10 20 0 11 5 20 10 20 6 0 10 7 10 15 0 9 24 39 52 68 l53 52 52 -52 c29 -29
53 -59 53 -68z"/>
</g>
</svg>
